<svg xmlns="http://www.w3.org/2000/svg" version="1.1" xmlns:xlink="http://www.w3.org/1999/xlink" xmlns:svgjs="http://svgjs.dev/svgjs" viewBox="0 0 5.377461515552539 2.549742921794926"><g transform="matrix(1,0,0,1,2.6227967024340675,0.8163452160983299)"><g><path d=" M 0.8132429999999999 0.14437050000000007 C 0.8132429999999999 0.05298000000000003 0.7456935 0 0.6225149999999999 0 C 0.41854199999999997 0 0.20794649999999998 0.16556250000000006 0.20794649999999998 0.36158850000000003 C 0.20794649999999998 0.596025 0.524502 0.6741705 0.524502 0.935097 C 0.524502 1.1456925 0.28874099999999997 1.398672 0.0437085 1.398672 C -0.12582749999999998 1.398672 -0.217218 1.2927119999999999 -0.217218 1.162911 C -0.217218 0.937746 -0.010596 0.7854285 0.10993349999999999 0.7854285 C 0.17350949999999998 0.7854285 0.2132445 0.823839 0.2132445 0.8860905 C 0.2132445 1.009269 0.1178805 1.08609 0.0887415 1.1086065 C 0.082119 1.1139044999999999 0.07947 1.1165535 0.07947 1.1218515 C 0.07947 1.1258249999999999 0.084768 1.131123 0.0887415 1.131123 C 0.09271499999999999 1.131123 0.0966885 1.1297985 0.1019865 1.1258249999999999 C 0.13244999999999998 1.1033085 0.2450325 1.017216 0.2450325 0.8860905 C 0.2450325 0.8039715 0.1920525 0.7536404999999999 0.10993349999999999 0.7536404999999999 C -0.021192 0.7536404999999999 -0.24900599999999998 0.919203 -0.24900599999999998 1.16556 C -0.24900599999999998 1.311255 -0.150993 1.4291355000000001 0.039735 1.4291355000000001 C 0.30066149999999997 1.4291355000000001 0.5602635 1.1615864999999999 0.5602635 0.935097 C 0.5602635 0.6582764999999999 0.2397345 0.5708595000000001 0.2397345 0.36158850000000003 C 0.2397345 0.1788075 0.4437075 0.03178800000000004 0.6225149999999999 0.03178800000000004 C 0.7271504999999999 0.03178800000000004 0.781455 0.07284750000000006 0.781455 0.14569500000000002 C 0.781455 0.24635700000000005 0.6741705 0.3165555 0.6437069999999999 0.34172100000000005 C 0.63576 0.34834350000000003 0.633111 0.349668 0.633111 0.35364150000000005 C 0.633111 0.357615 0.6370844999999999 0.362913 0.641058 0.362913 C 0.6437069999999999 0.362913 0.6476805 0.36158850000000003 0.654303 0.357615 C 0.6927135 0.33509849999999997 0.8132429999999999 0.254304 0.8132429999999999 0.14437050000000007 M 1.2198981298828124 0.728475 C 1.2198981298828124 0.728475 1.2265206298828124 0.7205280000000001 1.2265206298828124 0.71523 C 1.2265206298828124 0.7086075000000001 1.2212226298828126 0.7033095 1.2146001298828124 0.7033095 C 1.2079776298828124 0.7033095 1.2013551298828125 0.7112565 1.2013551298828125 0.7112565 C 1.1576466298828125 0.7589385 1.0914216298828125 0.8039715 1.0159251298828125 0.8198655 C 1.0781766298828126 0.749667 1.1218851298828125 0.6609255 1.1218851298828125 0.5986739999999999 C 1.1218851298828125 0.5549655 1.0967196298828126 0.5298 1.0569846298828125 0.5298 C 0.9735411298828125 0.5298 0.8490381298828125 0.630462 0.8013561298828125 0.672846 C 0.8477136298828125 0.5947005000000001 0.8914221298828126 0.5364225 0.9126141298828125 0.5072835 C 0.9192366298828125 0.498012 0.9218856298828125 0.4940385 0.9218856298828125 0.4887405 C 0.9218856298828125 0.482118 0.9126141298828125 0.474171 0.9046671298828125 0.474171 C 0.8980446298828125 0.474171 0.8927466298828125 0.47946900000000003 0.8834751298828125 0.4913895 C 0.8463891298828126 0.5417205 0.7576476298828125 0.6662235 0.6874491298828125 0.82119 C 0.6212241298828125 0.9682095 0.5616216298828125 1.13907 0.5616216298828125 1.2543015 C 0.5616216298828125 1.2807914999999999 0.5788401298828125 1.2993345 0.5867871298828126 1.2993345 C 0.5947341298828125 1.2993345 0.5960586298828126 1.2927119999999999 0.5960586298828126 1.2622485 C 0.5960586298828126 1.1430435 0.6530121298828125 0.98013 0.7165881298828125 0.8357595 C 0.7324821298828125 0.8013224999999999 0.7510251298828126 0.7655609999999999 0.7735416298828125 0.7377465 C 0.8053296298828125 0.6966870000000001 0.9629451298828124 0.564237 1.0503621298828125 0.564237 C 1.0715541298828124 0.564237 1.0847991298828126 0.5748329999999999 1.0847991298828126 0.6026475 C 1.0847991298828126 0.664899 1.0344681298828124 0.760263 0.9682431298828125 0.8251634999999999 C 0.8490381298828125 0.8331105 0.7589721298828125 0.8172165 0.7589721298828125 0.8781435 C 0.7589721298828125 0.9072825 0.7854621298828125 0.9258255 0.8291706298828125 0.9258255 C 0.8847996298828125 0.9258255 0.9417531298828126 0.892713 0.9894351298828126 0.84768 C 1.0781766298828126 0.8357595 1.1549976298828124 0.797349 1.2198981298828124 0.728475 M 0.8291706298828125 0.898011 C 0.8053296298828125 0.898011 0.7907601298828125 0.890064 0.7907601298828125 0.876819 C 0.7907601298828125 0.842382 0.8530116298828125 0.8543025 0.9404286298828125 0.850329 C 0.9046671298828125 0.879468 0.8662566298828125 0.898011 0.8291706298828125 0.898011 M 1.540438124267578 0.728475 C 1.540438124267578 0.728475 1.5470606242675782 0.7205280000000001 1.5470606242675782 0.71523 C 1.5470606242675782 0.7086075000000001 1.5417626242675782 0.7033095 1.5338156242675782 0.7033095 C 1.528517624267578 0.7033095 1.5218951242675782 0.7112565 1.5218951242675782 0.7112565 C 1.503352124267578 0.731124 1.394743124267578 0.855627 1.3099751242675781 0.855627 C 1.263617624267578 0.855627 1.2384521242675781 0.829137 1.2384521242675781 0.7827795 C 1.2384521242675781 0.7403955 1.2503726242675781 0.7245015 1.2503726242675781 0.7245015 C 1.4159351242675782 0.5708595000000001 1.671563624267578 0.309933 1.671563624267578 0.21059550000000005 C 1.671563624267578 0.1761585 1.650371624267578 0.1549665 1.6172591242675782 0.1549665 C 1.4980541242675782 0.1549665 1.205339624267578 0.561588 1.205339624267578 0.7827795 C 1.205339624267578 0.84768 1.2477236242675782 0.8860905 1.3033526242675781 0.8860905 C 1.400041124267578 0.8860905 1.5218951242675782 0.7483425 1.540438124267578 0.728475 M 1.6185836242675782 0.18278099999999997 C 1.6318286242675781 0.18278099999999997 1.6411001242675782 0.190728 1.6411001242675782 0.20529750000000002 C 1.6411001242675782 0.2953635 1.389445124267578 0.5523165 1.253021624267578 0.683442 C 1.317922124267578 0.4860915 1.532491124267578 0.18278099999999997 1.6185836242675782 0.18278099999999997 M 1.7934105102539062 0.8172165 C 1.8530130102539062 0.8172165 1.9205625102539061 0.7894019999999999 1.9801650102539061 0.728475 C 1.9801650102539061 0.728475 1.9867875102539063 0.7205280000000001 1.9867875102539063 0.71523 C 1.9867875102539063 0.7086075000000001 1.9814895102539063 0.7033095 1.9748670102539063 0.7033095 C 1.9682445102539061 0.7033095 1.9616220102539064 0.7112565 1.9616220102539064 0.7112565 C 1.9126155102539062 0.762912 1.8556620102539063 0.7894019999999999 1.8000330102539062 0.7894019999999999 L 1.7907615102539063 0.7894019999999999 C 1.8410925102539062 0.7350975 1.8795030102539063 0.664899 1.8795030102539063 0.5986739999999999 C 1.8795030102539063 0.508608 1.8291720102539062 0.466224 1.7655960102539063 0.466224 C 1.6887750102539063 0.466224 1.6026825102539062 0.5271509999999999 1.5881130102539063 0.6079455 C 1.5510270102539063 0.649005 1.5271860102539063 0.704634 1.5271860102539063 0.76821 C 1.5271860102539063 0.8410575 1.5708945102539063 0.879468 1.6278480102539064 0.879468 C 1.6702320102539063 0.879468 1.7205630102539062 0.8543025 1.7642715102539062 0.815892 C 1.7735430102539063 0.8172165 1.7828145102539064 0.8172165 1.7934105102539062 0.8172165 M 1.6185765102539063 0.627813 C 1.6596360102539063 0.580131 1.7179140102539063 0.5496675 1.7735430102539063 0.5417205 C 1.7828145102539064 0.540396 1.7881125102539062 0.5390714999999999 1.7881125102539062 0.5311245 C 1.7881125102539062 0.5231775000000001 1.7788410102539063 0.5205285 1.7669205102539063 0.5205285 C 1.7271855102539062 0.5205285 1.6834770102539063 0.5350980000000001 1.6450665102539062 0.5589390000000001 C 1.6755300102539064 0.521853 1.7271855102539062 0.498012 1.7642715102539062 0.498012 C 1.8053310102539062 0.498012 1.8450660102539063 0.5298 1.8450660102539063 0.5986739999999999 C 1.8450660102539063 0.6635745 1.8040065102539062 0.733773 1.7536755102539063 0.784104 C 1.6728810102539062 0.7642365 1.6185765102539063 0.6966870000000001 1.6185765102539063 0.627813 M 1.6344705102539063 0.84768 C 1.5881130102539063 0.84768 1.5642720102539063 0.823839 1.5642720102539063 0.76821 C 1.5642720102539063 0.7297994999999999 1.5735435102539062 0.6966870000000001 1.5907620102539062 0.6662235 C 1.6053315102539063 0.728475 1.6583115102539063 0.784104 1.7271855102539062 0.8066205 C 1.6953975102539063 0.831786 1.6622850102539062 0.84768 1.6344705102539063 0.84768 M 2.468933966308594 0.728475 C 2.468933966308594 0.728475 2.4755564663085936 0.7205280000000001 2.4755564663085936 0.71523 C 2.4755564663085936 0.7086075000000001 2.470258466308594 0.7033095 2.4623114663085937 0.7033095 C 2.457013466308594 0.7033095 2.4503909663085937 0.7112565 2.4503909663085937 0.7112565 C 2.393437466308594 0.7774814999999999 2.3099939663085935 0.8304615 2.218603466308594 0.8781435 C 2.2384709663085935 0.829137 2.254364966308594 0.7827795 2.267609966308594 0.7430445 C 2.2808549663085937 0.7006605 2.290126466308594 0.6701969999999999 2.290126466308594 0.6609255 C 2.290126466308594 0.654303 2.279530466308594 0.6476805 2.272907966308594 0.6476805 C 2.264960966308594 0.6476805 2.253040466308594 0.678144 2.214629966308594 0.7192035 C 2.1497294663085937 0.7894019999999999 2.060987966308594 0.8569515 2.017279466308594 0.8569515 C 1.9934384663085938 0.8569515 1.9775444663085937 0.8410575 1.9775444663085937 0.8119185 C 1.9775444663085937 0.7059584999999999 2.1404579663085936 0.5496675 2.2702589663085937 0.5496675 C 2.3099939663085935 0.5496675 2.323238966308594 0.572184 2.323238966308594 0.5894025 C 2.323238966308594 0.6052965 2.3166164663085937 0.614568 2.3166164663085937 0.619866 C 2.3166164663085937 0.625164 2.3205899663085936 0.6291375 2.325887966308594 0.6291375 C 2.3338349663085936 0.6291375 2.349728966308594 0.6105945 2.349728966308594 0.5841045 C 2.349728966308594 0.55629 2.3311859663085936 0.5205285 2.2609874663085936 0.5205285 C 2.123239466308594 0.5205285 1.9404584663085938 0.6900645 1.9404584663085938 0.8092695 C 1.9404584663085938 0.8609249999999999 1.9748954663085938 0.8847659999999999 2.0093324663085936 0.8847659999999999 C 2.0808554663085936 0.8847659999999999 2.168272466308594 0.8092695 2.2371464663085936 0.736422 C 2.2212524663085937 0.7827795 2.2000604663085936 0.8410575 2.1735704663085937 0.9019845 C 1.9272134663085938 1.025163 1.6384724663085939 1.1192025 1.6384724663085939 1.2993345 C 1.6384724663085939 1.3708575 1.6901279663085937 1.4211885 1.7669489663085938 1.4211885 C 1.9537034663085937 1.4211885 2.108669966308594 1.1456925 2.202709466308594 0.9178785 C 2.3060204663085937 0.863574 2.4013844663085937 0.8039715 2.468933966308594 0.728475 M 1.6729094663085937 1.2993345 C 1.6729094663085937 1.1456925 1.9232399663085937 1.056951 2.157676466308594 0.940395 C 2.064961466308594 1.152315 1.9232399663085937 1.3920495 1.7656244663085938 1.3920495 C 1.7126444663085938 1.3920495 1.6729094663085937 1.3549635 1.6729094663085937 1.2993345" fill="#3c8b94" fill-rule="nonzero"></path></g><g></g><g clip-path="url(&quot;#SvgjsClipPath1001&quot;)"><g clip-path="url(&quot;#b2bc3331b-80cc-432f-8317-67acad0d6468a701e7ad-2865-4f77-8424-70bd0430ea49&quot;)"><path d=" M -1.0182740440973446 0.13671021218866752 C -1.0182740440973446 0.2957180531339364 -0.8893707633424148 0.4246137983293691 -0.7303704579566428 0.4246137983293691 C -0.5713626170113741 0.4246137983293691 -0.4424593362564444 0.2957180531339364 -0.4424593362564444 0.13671021218866752 C -0.4424593362564444 -0.022297628756601406 -0.5713626170113741 -0.15119337395203408 -0.7303704579566428 -0.15119337395203408 C -0.8893707633424148 -0.15119337395203408 -1.0182740440973446 -0.022297628756601406 -1.0182740440973446 0.13671021218866752" fill="#f4a622" transform="matrix(1,0,0,1,0,0)" fill-rule="nonzero"></path></g><g clip-path="url(&quot;#b2bc3331b-80cc-432f-8317-67acad0d6468a701e7ad-2865-4f77-8424-70bd0430ea49&quot;)"><path d=" M -1.5262461097871496 0.820584843215917 C -1.5262461097871496 0.9672871155026567 -1.4073199098061897 1.0862208510431133 -1.2606101019599532 1.0862208510431133 C -1.1139078296732134 1.0862208510431133 -0.9949816296922536 0.9672871155026567 -0.9949816296922536 0.820584843215917 C -0.9949816296922536 0.6738825709291772 -1.1139078296732132 0.5549488353887205 -1.2606101019599532 0.5549488353887205 C -1.4073199098061897 0.5549488353887205 -1.5262461097871496 0.6738825709291772 -1.5262461097871496 0.820584843215917" fill="#3c8b94" transform="matrix(1,0,0,1,0,0)" fill-rule="nonzero"></path></g><g clip-path="url(&quot;#b2bc3331b-80cc-432f-8317-67acad0d6468a701e7ad-2865-4f77-8424-70bd0430ea49&quot;)"><path d=" M -1.2697507356297608 1.0778187022040076 C -1.4380725281132674 1.0778187022040076 -1.5750162508514491 0.9408749794658259 -1.5750162508514491 0.7725531869823193 C -1.5750162508514491 0.6042313944988126 -1.4380725281132674 0.46730274287962503 -1.2697507356297608 0.46730274287962503 C -1.1014289431462543 0.46730274287962503 -0.9644927559675696 0.6042313944988126 -0.9644927559675696 0.7725531869823193 C -0.9644927559675696 0.9408749794658259 -1.1014289431462543 1.0778187022040076 -1.2697507356297608 1.0778187022040076 M -1.2697507356297608 0.4965557848468084 C -1.4219388952302845 0.4965557848468084 -1.545755673324769 0.6203650273817954 -1.545755673324769 0.7725531869823193 C -1.545755673324769 0.924741346582843 -1.4219388952302845 1.048558124677327 -1.2697507356297608 1.048558124677327 C -1.1175625760292371 1.048558124677327 -0.9937533334942499 0.924741346582843 -0.9937533334942499 0.7725531869823193 C -0.9937533334942499 0.6203650273817954 -1.1175625760292371 0.4965557848468084 -1.2697507356297608 0.4965557848468084" fill="#3c8b94" transform="matrix(1,0,0,1,0,0)" fill-rule="nonzero"></path></g><g clip-path="url(&quot;#b2bc3331b-80cc-432f-8317-67acad0d6468a701e7ad-2865-4f77-8424-70bd0430ea49&quot;)"><path d=" M -1.7049519032574616 1.2389591064869148 C -1.7068583998101914 1.2697870803889622 -1.7095485945506046 1.300471878660567 -1.7130149519192044 1.3309758235042448 C -1.7156825399811269 1.3544867691347475 -1.7388317787557757 1.405992318296442 -1.742592022944757 1.3372755512437 C -1.7450862931382494 1.291534705097177 -1.7383871807454554 1.2885958368933643 -1.7428859097651381 1.2443847093247231 C -1.7445211261759774 1.2292683769738293 -1.7472188564758877 1.2023588940101995 -1.7572034728093544 1.1915453661320679 C -1.7775570190106327 1.1691572188666113 -1.8592048061601512 1.1709958953838684 -1.8476527934513176 1.1541162421106872 C -1.8438850137028395 1.1457216288310779 -1.8073601568210937 1.1423758404144295 -1.7800738958826159 1.1376133668123534 C -1.7729753988364834 1.136332321697871 -1.7653720193040547 1.13578976141409 -1.7595470318129078 1.131388994667868 C -1.753857684392706 1.1270861901951057 -1.7508811383914082 1.1201157976604215 -1.748703361696788 1.1132659740776885 C -1.732614942170787 1.060238241897609 -1.7427125918967081 1.0183706733325213 -1.7297665006809377 0.9435877808847298 C -1.7088176452794 0.8960007226614527 -1.7081771227221587 1.1055194189148176 -1.69710738582113 1.1263024920074223 C -1.681591668816898 1.1421045602725393 -1.5537207597130513 1.201944438237867 -1.6236733585232939 1.219411865151811 C -1.6352705845891091 1.2212656127880623 -1.676083174824623 1.2105274405048996 -1.6876351875334565 1.2121325146777515 C -1.6876879364499353 1.2120948368802664 -1.7032337956921555 1.209276537628405 -1.7049519032574616 1.2389591064869148" fill="#f4a622" transform="matrix(1,0,0,1,0,0)" fill-rule="nonzero"></path></g><g clip-path="url(&quot;#b2bc3331b-80cc-432f-8317-67acad0d6468a701e7ad-2865-4f77-8424-70bd0430ea49&quot;)"><path d=" M -1.0831175335686511 -0.26886867105649925 C -1.0815802794312723 -0.24528236983102697 -1.0806006566966677 -0.22159057077259725 -1.0801786653648382 -0.19780834500020406 C -1.0796210339620635 -0.18050670039519306 -1.0940139526012496 -0.1293553225298556 -1.104390418028558 -0.17981342892147306 C -1.1109312836719158 -0.21492913617728815 -1.1056187142265619 -0.21988753432628522 -1.1133275915919478 -0.25449835909580415 C -1.1160177863323613 -0.26647236313646727 -1.120531586471038 -0.28821998784468233 -1.129393404439458 -0.2959665430075531 C -1.1474410694346677 -0.3117158623561912 -1.2124503412149075 -0.3008345144425867 -1.2040255856973106 -0.32292877488766175 C -1.2014258176708608 -0.3334559515049093 -1.1728283693799124 -0.3372463379318782 -1.1517438739074297 -0.34232530503282654 C -1.1462655221531426 -0.3436440279447939 -1.1403350368290381 -0.3443599060970046 -1.1361226590702398 -0.34831607483290655 C -1.1320082435849017 -0.352174281295348 -1.1302524582221112 -0.35811983773844636 -1.1291296598570648 -0.36383932739663594 C -1.121028933397837 -0.406671447577334 -1.1324754482737132 -0.44230710843843896 -1.1285192795378112 -0.49370715976717594 C -1.1165226688186571 -0.5226813860329719 -1.0986935350488594 -0.37083986216930814 -1.0876840826238066 -0.35424656015701095 C -1.0744516401471518 -0.33888908990221456 -0.9674843730878611 -0.3203892913371876 -1.0204141429944802 -0.29929726030520765 C -1.029366387676864 -0.2958836518530866 -1.0628996274383182 -0.2955822294732084 -1.0719422988346654 -0.2923796166870021 C -1.0719799766321503 -0.2923720811275051 -1.084662323265527 -0.2916788096537851 -1.0831175335686511 -0.26886867105649925" fill="#f4a622" transform="matrix(1,0,0,1,0,0)" fill-rule="nonzero"></path></g><g clip-path="url(&quot;#b2bc3331b-80cc-432f-8317-67acad0d6468a701e7ad-2865-4f77-8424-70bd0430ea49&quot;)"><path d=" M -0.8926713384020817 1.0202771698852513 C -0.9089255402370158 1.0303974262896634 -0.9118945506788165 1.0566513155770578 -0.8979085522524661 1.0697255113042767 C -0.8839225538261157 1.0827997070314952 -0.8573597065993459 1.0775323509431232 -0.8499296449353473 1.0598840706012518 C -0.8425071188308455 1.0422433258188781 -0.8580605136325627 1.0192523337936654 -0.8771857636358371 1.020133994254809" fill="#f4a622" transform="matrix(1,0,0,1,0,0)" fill-rule="nonzero"></path></g><g clip-path="url(&quot;#b2bc3331b-80cc-432f-8317-67acad0d6468a701e7ad-2865-4f77-8424-70bd0430ea49&quot;)"><path d=" M -0.48160656784313116 0.46590866437268796 C -0.49786076967806525 0.4760289207770999 -0.5008297801198658 0.5022828100644948 -0.4868437816935156 0.5153570057917133 C -0.472857783267165 0.528431201518932 -0.44629493604039494 0.5231638454305597 -0.43886487437639654 0.505515565088689 C -0.4314348127123977 0.48786728474681784 -0.44699574307361223 0.4648838282811021 -0.4661209930768866 0.4657654887422459" fill="#f4a622" transform="matrix(1,0,0,1,0,0)" fill-rule="nonzero"></path></g><g clip-path="url(&quot;#b2bc3331b-80cc-432f-8317-67acad0d6468a701e7ad-2865-4f77-8424-70bd0430ea49&quot;)"><path d=" M -0.4280664176172586 0.8028009228031007 C -0.43828463629513115 0.8091609350185317 -0.4401534550503763 0.8256713458763622 -0.4313594571174284 0.8338926412875413 C -0.42256545918448074 0.8421139366987204 -0.4058591237797291 0.8388058260795567 -0.40118707689161637 0.8277059469405404 C -0.3965225655630007 0.8166136033610211 -0.4063037217900496 0.8021604002458594 -0.41833047474719165 0.8027104960891372" fill="#f4a622" transform="matrix(1,0,0,1,0,0)" fill-rule="nonzero"></path></g><g clip-path="url(&quot;#b2bc3331b-80cc-432f-8317-67acad0d6468a701e7ad-2865-4f77-8424-70bd0430ea49&quot;)"><path d=" M -1.5160881755852529 0.36692155482067357 C -1.5263063942631252 0.3732815670361045 -1.5281752130183703 0.38979197789393505 -1.5193812150854227 0.39801327330511405 C -1.510587217152475 0.40623456871629304 -1.4938808817477236 0.40292645809712946 -1.4892088348596109 0.39182657895811324 C -1.484544323530995 0.38073423537859385 -1.4943254797580439 0.3662810322634322 -1.5063522327151855 0.36683112810671015" fill="#f4a622" transform="matrix(1,0,0,1,0,0)" fill-rule="nonzero"></path></g><g clip-path="url(&quot;#b2bc3331b-80cc-432f-8317-67acad0d6468a701e7ad-2865-4f77-8424-70bd0430ea49&quot;)"><path d=" M -2.1405223133005133 0.8201176385271055 C -2.168976585961019 0.8283766117357693 -2.181643861475402 0.8688877795914048 -2.1629556739229514 0.8918863071761146 C -2.144259950811003 0.9148772992013273 -2.102015604271068 0.9107553481564924 -2.088120032558681 0.8845843500235643 C -2.074224460846294 0.858413351890636 -2.094472509214615 0.8211047968212067 -2.1239892957641917 0.818505028794757" fill="#f4a622" transform="matrix(1,0,0,1,0,0)" fill-rule="nonzero"></path></g><g clip-path="url(&quot;#b2bc3331b-80cc-432f-8317-67acad0d6468a701e7ad-2865-4f77-8424-70bd0430ea49&quot;)"><path d=" M -0.6753910158668519 0.9016448567246728 C -0.7038452885273576 0.9099038299333365 -0.7165125640417409 0.9504149977889721 -0.6978243764892897 0.9734135253736819 C -0.679128653377342 0.9964045173988946 -0.6368843068374066 0.9922825663540596 -0.6229887351250198 0.9661115682211315 C -0.6090931634126329 0.9399405700882032 -0.6293412117809538 0.902632015018774 -0.6588655338900273 0.9000322469923242" fill="#f4a622" transform="matrix(1,0,0,1,0,0)" fill-rule="nonzero"></path></g><g clip-path="url(&quot;#b2bc3331b-80cc-432f-8317-67acad0d6468a701e7ad-2865-4f77-8424-70bd0430ea49&quot;)"><path d=" M -0.6554217831999185 0.550713850951431 C -0.6838760558604242 0.5589728241600948 -0.6965433313748075 0.5994839920157303 -0.6778551438223563 0.6224825196004401 C -0.6591594207104086 0.645473511625653 -0.6169150741704732 0.6413515605808179 -0.6030195024580864 0.6151805624478898 C -0.5891239307456992 0.5890095643149617 -0.6093719791140204 0.5517010092455322 -0.6388887656635971 0.5491012412190824" fill="#f4a622" transform="matrix(1,0,0,1,0,0)" fill-rule="nonzero"></path></g><g clip-path="url(&quot;#b2bc3331b-80cc-432f-8317-67acad0d6468a701e7ad-2865-4f77-8424-70bd0430ea49&quot;)"><path d=" M -1.9103486484659915 0.946293046744137 C -1.926723419252877 0.9510404492272194 -1.9340103052864335 0.9743554703108012 -1.9232570618842773 0.987587912787456 C -1.912503818482121 1.0008128197046138 -1.888194103544941 0.9984466540225695 -1.8801988749186704 0.9833830705881544 C -1.8722036462924003 0.9683270227132362 -1.8838536212746941 0.9468657492659057 -1.900838772380833 0.9453661729260115" fill="#f4a622" transform="matrix(1,0,0,1,0,0)" fill-rule="nonzero"></path></g><g clip-path="url(&quot;#b2bc3331b-80cc-432f-8317-67acad0d6468a701e7ad-2865-4f77-8424-70bd0430ea49&quot;)"><path d=" M -0.7051640114393252 -0.005357691007444321 C -0.7103334052542369 -0.005026126389578334 -0.716030288233936 -0.006374991539533359 -0.7203783060636795 -0.003549156728174907 C -0.7259922978889117 0.00010558962784879 -0.7259696912104208 0.008447453990979015 -0.7301443911717345 0.013692203400860414 C -0.7348842580953197 0.019660366522449624 -0.7443489208234964 0.020089893413776205 -0.7509576065023269 0.016291971427310314 C -0.7575662921811572 0.012501585000341375 -0.7617409921424709 0.0055462635846510455 -0.7645592913943324 -0.0015371623424876857 C -0.7673625195272 -0.008590446031638499 -0.7706555590273698 -0.01738444396458616 -0.778191118524326 -0.018251033306736053 C -0.7814012668700292 -0.01862027572208691 -0.7846114152157326 -0.017286481691125677 -0.7871735054446976 -0.015319700662420221 C -0.7960051811751301 -0.008530161555662774 -0.7973465107655882 0.005079058895839816 -0.7924559326520637 0.015086281907797372 C -0.7875653545385393 0.02510104047925188 -0.7778670894659567 0.03194332850248793 -0.7677392975020481 0.03658523315261286 C -0.7499779837677225 0.04473870852831929 -0.7280118278340957 0.04697676969891518 -0.711531559214253 0.036479735319655426 C -0.7007933869310907 0.029637447296419372 -0.6929262628162687 0.0178518322431801 -0.6806357652767334 0.014543721624016515 C -0.6767926299332858 0.013503814413436621 -0.6727158922454326 0.013383245461485282 -0.6689631836159484 0.012041915871027098 C -0.6590991362344332 0.00851527402645158 -0.6538845290625395 -0.0026750318265279516 -0.6533796465762436 -0.013134388408302944 C -0.6528672285304504 -0.023601280549574888 -0.6559492723647053 -0.03385717702493196 -0.6575166687400722 -0.044211035773749574 C -0.6583907936417193 -0.05001341658640568 -0.6588127849735488 -0.05596650858900093 -0.6609830261086722 -0.06142225366479709 C -0.6682623765827316 -0.07978641215887888 -0.6914266864763743 -0.08537779730562028 -0.711177387917896 -0.08587514423241938 C -0.7164522795657655 -0.08601078430336462 -0.7222019114619427 -0.08613135325531585 -0.726240971352311 -0.08951481946944911 C -0.7283433924519618 -0.09128567595123377 -0.729722399839905 -0.09375733946623538 -0.7316439675116284 -0.09572412049494083 C -0.7493374612104813 -0.11386221220411402 -0.7855759668313429 -0.07984669663485455 -0.7897732734711473 -0.06243955419688613 C -0.7915290588339381 -0.05514513260383275 -0.7879798103108719 -0.04547700976923824 -0.7804819286114006 -0.04503994731841471 C -0.7734437160412437 -0.04462549154608214 -0.7683044644643195 -0.05243986674442558 -0.7612963941321504 -0.05312560265864852 C -0.7547103151318111 -0.053766125215889804 -0.748568834141792 -0.04791099548675498 -0.7420882529744097 -0.04925232507721311 C -0.7393302381985238 -0.04981749203948482 -0.7370168214329584 -0.05162602631875429 -0.7346431201914172 -0.05314067377764248 C -0.7247489305719139 -0.05947807931458243 -0.7117350193206708 -0.06120372243938543 -0.700951633680527 -0.05653167555127264 C -0.6901757835998796 -0.05185962866315991 -0.6823312661635486 -0.04045832714426545 -0.6829642531612927 -0.028725461007505004 C -0.6835972401590369 -0.01699259487074445 -0.6934386808620616 -0.0061112469571399375 -0.7051640114393252 -0.005357691007444321 M -0.8559279502949242 0.14665715072464935 C -0.8492665156996151 0.14043277858016368 -0.8370815159930372 0.14114112117287758 -0.8327636404012815 0.1331082147491225 C -0.8298172366379717 0.12764493411382938 -0.8323341135099549 0.12068207713864199 -0.836425922316802 0.1160175658100262 C -0.8405252666831462 0.11135305448141042 -0.845996082877936 0.10810522833822234 -0.8503742429456675 0.10370446159200009 C -0.8519039615235497 0.09775890514890173 -0.8426879722587726 0.09219766224014825 -0.8455138070701311 0.08674191716435209 C -0.8464632875667475 0.08491831176608877 -0.8484903530714285 0.0839688312694723 -0.8504119207431524 0.08321527531977668 C -0.8730864192694932 0.07436852847035025 -0.8998602621621778 0.0767874430688732 -0.9205905863383037 0.08955268085671664 C -0.9239137680764613 0.09160235303988873 -0.9272821631716008 0.09414937214985986 -0.9284501748936289 0.09787193854135601 C -0.9296181866156572 0.10159450493285238 -0.9273499832070733 0.10653029640335865 -0.9234540989471469 0.10665086535530988 C -0.913529767089656 0.0979849719338104 -0.9015859052869808 0.09006509890250969 -0.8884212828457985 0.09051723247232701 C -0.8752566604046164 0.09096936604214445 -0.8621221802014221 0.10359896375904265 -0.8657844621169426 0.11625116815443182 C -0.866914796041486 0.12015458797385503 -0.8694090662349785 0.12350037639050349 -0.8718505875119922 0.12675573809318852 C -0.8825812242356577 0.14102055222092624 -0.8938845634810917 0.15577517771596616 -0.9098298073766506 0.1638005485802243 C -0.9217133847033501 0.16977624726131046 -0.9367091481022927 0.17127582360120464 -0.9480124873477267 0.16427528882853248 C -0.9610791475154485 0.15618209792880167 -0.9557515069511004 0.1403348163067033 -0.965080529608332 0.13131475158884687 C -0.980535962136589 0.11635666598738925 -0.9734525362094502 0.13577580281104484 -0.9749219703113567 0.14616733935734727 C -0.9754796017141314 0.1501159725337522 -0.9786746789408407 0.15313773189203161 -0.9801516486022441 0.1568376916050369 C -0.9836858260063164 0.165737187370942 -0.976037233116906 0.1757067325854148 -0.9670397750775406 0.17897716540709374 C -0.96285753955673 0.18049934842547888 -0.9581930282281141 0.18116247766121096 -0.9547342064190114 0.1839581702345816 C -0.9519837272026224 0.18618869584568054 -0.950340975232286 0.1894892709053474 -0.9479597384312479 0.1921041100507911 C -0.9435223892259035 0.19684957312886897 -0.9369459616162827 0.19896189773169903 -0.9305752026717704 0.19768795963803543 C -0.9181716717397808 0.19505051381410088 -0.9108847857062243 0.18045413506849706 -0.8983832925007744 0.17832910729035545 C -0.8893180144259363 0.17678431759347946 -0.8791224024265547 0.18220238487179086 -0.8712703494307266 0.1774248401507208 C -0.8612480552997752 0.17133610807718036 -0.8644958814429631 0.1546674504699136 -0.8559279502949242 0.14665715072464924 M -0.7047194134290047 0.16429789550702334 C -0.6964227624228563 0.16535287383659725 -0.6869430285756855 0.16075618254345414 -0.6850440675824525 0.15261024272724466 C -0.683137571029723 0.14446430291103518 -0.6925419492819238 0.13536134703871228 -0.69990419091045 0.13933258689360806 C -0.7055031116166883 0.14233927513289357 -0.7079069550962174 0.15084692180495696 -0.7142518961926543 0.15111820194684744 C -0.7176428979662843 0.15126891313678648 -0.7208379751929936 0.14875203626480316 -0.724191299169139 0.14933227434606877 C -0.729006521687694 0.15016872145023086 -0.7306492736580303 0.15649859142767397 -0.7348767225358226 0.15897025494267558 C -0.7403626098496068 0.16217286772888173 -0.747159684515861 0.15757617643573862 -0.7510631043352844 0.15256502937026295 C -0.7579581412749992 0.14371828252083652 -0.7619369166893917 0.13153328281425858 -0.7576793255736116 0.12116435294644712 C -0.7534292700173284 0.11079542307863566 -0.7387273934387673 0.10506086230145217 -0.7302348178856979 0.11237789057299641 C -0.7268664227905584 0.11527154541982754 -0.7244776504300234 0.11990591451045551 -0.7200994903622919 0.12066700601964808 C -0.7140333649672426 0.12172198434922199 -0.7073945370504242 0.11459334506510155 -0.702473816698912 0.11830084033760391 C -0.7001754710523402 0.12003401902190369 -0.6997685508395046 0.12336473631955824 -0.6978469831677807 0.12550483521669387 C -0.6939209566698668 0.12986792416543136 -0.6857448746156696 0.12623578448789852 -0.6844336872631991 0.12050875927021198 C -0.6790759044608636 0.0971033114726666 -0.7227821495432085 0.0885504514436215 -0.7383807577019075 0.08991438771257054 C -0.7665110013040439 0.09236344454908119 -0.7753426770344765 0.11346301114055812 -0.7756365638548579 0.13967168707097122 C -0.7756968483308335 0.14545146120513652 -0.7755159949029067 0.1513894820887377 -0.7732628626133167 0.15670958709358862 C -0.7688244180696095 0.16720662147284848 -0.7573779031937333 0.17297132448801977 -0.7462704884952203 0.17554095027648176 C -0.7385163977728524 0.17733441343675727 -0.7287277059863069 0.17719123780631518 -0.7245756127034837 0.17040923425905474 C -0.7235884544093827 0.16879662452670618 -0.7230157518876139 0.1669202702119641 -0.7217799201301132 0.16549604946703933 C -0.7178538936321992 0.1609822493283628 -0.710657434312606 0.16354433955732772 -0.7047194134290047 0.16429789550702334 M -0.8117092871667864 0.2154266666938699 C -0.8299528767089168 0.2143566172453022 -0.848934951081749 0.22217099244364558 -0.8596203744484325 0.237000973533655 C -0.8703057978151163 0.2518234190641675 -0.8713758472636839 0.27348815261791604 -0.8606753527780064 0.2883105981484285 C -0.860215683648692 0.29065415715198184 -0.8565684728521654 0.28873258948025815 -0.8557169546290095 0.28649452830966216 C -0.8521300283084583 0.2770524722599762 -0.8543680894790544 0.2660957687514022 -0.8504420629811402 0.25678935277266157 C -0.8458981206044758 0.24602103825151134 -0.8336603719814193 0.239917235058977 -0.8219727192016404 0.2399775195349526 C -0.8102850664218617 0.24003780401092834 -0.7991927228423423 0.24525994674231877 -0.7895396711267417 0.25184602574265835 C -0.7932848441967288 0.2533079242850679 -0.7937972622425218 0.2587033848848883 -0.7918983012492888 0.2622526334079547 C -0.789991804696559 0.265794346371524 -0.7865555895659471 0.2682207965295438 -0.7839708926584912 0.2713028403637988 C -0.7781383696078474 0.2782656973389862 -0.7782740096787923 0.29085761725839965 -0.7864576272924866 0.2947987148753076 C -0.7938726178374915 0.2983630345173679 -0.8022220177601187 0.293193640702456 -0.8095390460316629 0.2894333965134749 C -0.8168485387437103 0.2856806878839909 -0.8279710245612173 0.28444485612649006 -0.8313544907753507 0.29194273782596136 C -0.8344516057285996 0.2988227036466822 -0.8277148155383209 0.306049305204263 -0.8211965565734538 0.30985476275022583 C -0.8124327008784942 0.3149638720891621 -0.8024405489855304 0.3184754428147435 -0.7923052214621247 0.3179554892094535 C -0.7332716483629711 0.3149186587321803 -0.7611456829422114 0.21839567713567065 -0.8117092871667864 0.2154266666938699 M -0.6736427660635582 0.2238363510924729 L -0.6714348471309499 0.22663204366584355 C -0.6773577968955573 0.22354246427209157 -0.683951411455394 0.2213194742204896 -0.690612846050703 0.22174900111181606 C -0.6972818162055092 0.22217099244364558 -0.7040110708362908 0.22562227869325147 -0.7070705079920552 0.2315678351363497 C -0.7098360583274379 0.23693315349818245 -0.7093311758411418 0.2434740191415402 -0.7117500904396648 0.24901265537180295 C -0.7137470137063582 0.25359427554595215 -0.7176428979662843 0.2572414863424788 -0.7191274031871848 0.26201903106354907 C -0.7218703468440766 0.2708808490319693 -0.7147417075599563 0.28052636518807306 -0.7058949607105298 0.2833220577614437 C -0.6970406783016065 0.2861252858943113 -0.687372555467012 0.28367622905780054 -0.6788573732354517 0.2799687337852982 C -0.6746374599171565 0.278122521708544 -0.6705004377533275 0.27595981613291753 -0.665986637614651 0.2750254067552952 C -0.6610809883821325 0.27400810622320604 -0.6557985611747665 0.27446023979302336 -0.6512470832386048 0.2723578186933727 C -0.6410891490367081 0.267663165126769 -0.6403205219680186 0.2524639416214087 -0.6466805341834494 0.2432554879161285 C -0.6530330108393834 0.23403949865135132 -0.6637862542415398 0.22913384941883297 -0.6736427660635582 0.2238363510924729 M -0.935435638547307 0.045386766645057475 C -0.9271992720171343 0.051618674349040106 -0.9148409544421263 0.04934293538095935 -0.9068080480183711 0.0428623542135772 C -0.9051351538100472 0.04151348906362207 -0.9034924018397106 0.03995362824775217 -0.9014050518590537 0.03943367464246228 C -0.8988957105465676 0.03880822320421484 -0.8963034780796144 0.03981798817680693 -0.893809207886122 0.04049618853153303 C -0.8854221301660101 0.04275685638061988 -0.8749250957867503 0.040262586187127414 -0.8712703494307268 0.03238792651280842 C -0.8683164101079199 0.02603544985687445 -0.8705092579215341 0.018010078992616307 -0.8668997249224923 0.012004238073542228 C -0.8628832717106147 0.005327732359239223 -0.8524540573668273 0.0023888641554263845 -0.8522882750578946 -0.00539536880492919 C -0.8521300283084585 -0.013036426134842571 -0.8607431728134791 -0.017489941797543596 -0.8611576285858116 -0.02492000346154216 C -0.8617604733455682 -0.03573353133967405 -0.8494021557705602 -0.03710500316811999 -0.8589120318557188 -0.05100811044000392 C -0.8660482066993362 -0.061444860343287944 -0.9004781780409281 -0.06959080015949742 -0.8982099746323444 -0.048800191507395785 L -0.8892351232714697 -0.04597435669603722 C -0.8857612303433731 -0.04365340437097487 -0.8864017529006143 -0.03834083492562085 -0.8881500027039082 -0.034550448498651964 C -0.889890716947705 -0.03075252651218613 -0.8924075938196885 -0.026773751097793286 -0.8913752221686053 -0.022727155647927932 C -0.8903880638745041 -0.018876484744983435 -0.8865223218525657 -0.016510319062939205 -0.8845555408238603 -0.01305149725383642 C -0.881850274964453 -0.008281488092263367 -0.8832368179118928 -0.0020345092692867217 -0.8864921796145777 0.002381328595929433 C -0.889740005757766 0.00680470202064265 -0.89453262159783 0.00978878358143731 -0.8991971329264457 0.012667367309274424 C -0.9089858247129916 0.018695814906839248 -0.9217510625008349 0.024731798063901023 -0.931200654110018 0.01819093242054326 C -0.9378470175863332 0.013594241127400042 -0.9396028029491239 0.004694745361495056 -0.9408160280281339 -0.0032929477052783263 C -0.9485625831910045 -0.00202697370978977 -0.9531442033651538 0.0068197731396365535 -0.9525187519269065 0.014641683897476887 C -0.9518933004886592 0.02246359465531722 -0.9474925337424369 0.029403844952013758 -0.9432198715076627 0.03598238839285628 C -0.9409893458965637 0.039418603523468265 -0.9386910002499922 0.042915103130055865 -0.935435638547307 0.045386766645057475 M -0.8016493152383499 -0.20601456929238915 C -0.9690743761417187 -0.20601456929238915 -1.1052946851681928 -0.06980179582541218 -1.1052946851681928 0.09763080063745355 C -1.1052946851681928 0.26506339710031923 -0.9690743761417187 0.40127617056729614 -0.8016493152383499 0.40127617056729614 C -0.6342242543349812 0.40127617056729614 -0.4980039453085072 0.26506339710031923 -0.4980039453085072 0.09763080063745355 C -0.4980039453085072 -0.06980179582541218 -0.6342242543349812 -0.20601456929238915 -0.8016493152383499 -0.20601456929238915 M -0.8016493152383499 0.3720155930406158 C -0.9529407432587358 0.3720155930406158 -1.0760416432010096 0.24892976421733637 -1.0760416432010096 0.09763080063745355 C -1.0760416432010096 -0.05366816294242932 -0.9529407432587358 -0.1767615273252059 -0.8016493152383499 -0.1767615273252059 C -0.6536433911586368 -0.1767615273252059 -0.5327051967919898 -0.05894305459029858 -0.5275131962985873 0.08781950217241674 C -0.5619883809971609 0.0542485846134777 -0.6306147213359394 0.04455785510039234 -0.625332294128573 0.10327493470067362 C -0.6250610139866828 0.10626655182096512 -0.6244657047864233 0.10928077561974747 -0.6249329094752345 0.11224978606154823 C -0.6259652811263174 0.11882832950239086 -0.6317601263794768 0.12338734299804921 -0.6360629308522385 0.1284587745395006 C -0.6451282089270767 0.1391366623466873 -0.6482780727968043 0.15453181039896835 -0.6441335150734786 0.16790742850606533 C -0.6399964929096493 0.1812830466131623 -0.6286931536642155 0.19220207232425157 -0.6151818954861734 0.19588696091826308 C -0.6094699413874807 0.1974392861746359 -0.6034565649089099 0.19777838635199907 -0.5978576442026713 0.19971502514271666 C -0.59365280200337 0.20116938812562923 -0.5898096666599226 0.2034903404506917 -0.5857555356505602 0.20533655252744587 C -0.5749646144509193 0.21025727287895823 -0.5626891880303779 0.2113499290060168 -0.5510392130480839 0.20914954563290566 C -0.5938713332287819 0.3050093979936831 -0.6900552146479282 0.37201559304061604 -0.8016493152383499 0.37201559304061604 M -0.5440386782754116 0.1921342522887789 C -0.5523202581625661 0.19504297825460393 -0.5608580470726174 0.19713786379475773 -0.5690341291268148 0.1945456313278049 C -0.574339163012672 0.1928576660004867 -0.579116707733742 0.18924813300144483 -0.5846704150829984 0.18894671062156654 C -0.5879182412261865 0.18877339275313654 -0.5911057828933988 0.18976055104723777 -0.5943536090365868 0.18993386891566777 C -0.606689319933104 0.190589462591903 -0.617495312251739 0.1769350287834187 -0.6140138837641451 0.16507405813520992 C -0.6130644032675285 0.16184130311101586 -0.6112634045477563 0.15848797913487034 -0.6123560606748149 0.15530043746765798 C -0.6130041187915531 0.15339394091492808 -0.6146091929644046 0.15193204237251856 -0.6152723222001368 0.15003308137928562 C -0.6168472541350007 0.1455795657165846 -0.6127629808876505 0.14112605005388368 -0.6085882809263368 0.1389030600022816 C -0.6044135809650231 0.13668760551017656 -0.5994476472565291 0.1351352802538036 -0.5970136615390125 0.1310736136849443 C -0.5938411909907939 0.1257685797990873 -0.5965539924096981 0.11906193184679648 -0.5967951303136008 0.11288277305929251 C -0.5972095860859334 0.10246109427500227 -0.589206821900166 0.09233330231109349 -0.5789659965438028 0.09032130792540616 C -0.5687251711874393 0.08830931353971894 -0.5574896519774779 0.0946617901956528 -0.5539328678949149 0.1044730886606896 C -0.5529381740413166 0.10720096119858769 -0.5522373670080998 0.11045632290127272 -0.5496828123386319 0.11182779472971871 C -0.5482661271532039 0.11258888623891128 -0.5465856973853827 0.11257381511991738 -0.5449956943315253 0.11273959742885031 C -0.5382965819387311 0.11345547558106117 -0.5325469500425537 0.11769046001835048 -0.5284928190331912 0.1231838828916314 C -0.5306580821025453 0.14674498625931331 -0.5358840235893225 0.1699235439927178 -0.5440386782754116 0.19213425228877923" fill="#3c8b94" transform="matrix(1,0,0,1,0,0)" fill-rule="nonzero"></path></g><g clip-path="url(&quot;#b2bc3331b-80cc-432f-8317-67acad0d6468a701e7ad-2865-4f77-8424-70bd0430ea49&quot;)"><path d=" M -1.1435753274127292 0.6808604990233585 C -1.1230107855455362 0.6778990241410549 -1.102461314797337 0.6735962196682929 -1.0817159195022172 0.6740558887976072 C -1.0791312225947614 0.6805289344054922 -1.087103844542541 0.6858113616128586 -1.0934563211984747 0.6875671469756494 C -1.1923605395960224 0.7149136923901026 -1.2972103144366685 0.7018771744603688 -1.3966570931179971 0.6768892591684627 C -1.4069732740693297 0.6742970267015097 -1.4176285551980254 0.6715616186041148 -1.4280502339823158 0.6736037552277899 C -1.4384719127666061 0.6756534274109619 -1.4486599892064906 0.6838897939411349 -1.4498656787260034 0.6952082043055626 C -1.437115512057154 0.7142882409518553 -1.4144410135308134 0.7220574027932171 -1.3930777023569427 0.7270384076207049 C -1.3643933127615036 0.7337275995765155 -1.3351078963444514 0.737509457662097 -1.3056652121922534 0.7383266757471451 C -1.2317639802056055 0.7403688123708202 -1.158518341895193 0.7236624769660686 -1.0846397165870363 0.7207160732027588 C -1.0715504497408237 0.7201885840379719 -1.0561025527720638 0.721379202438491 -1.0490417335234161 0.7332477086461967 C -1.0746098868965877 0.7408435526191285 -1.1013385164322906 0.7424636979109739 -1.1278260080640912 0.7440537009648317 L -1.2140328087092678 0.7492080236607496 C -1.2770074794253294 0.7529758034092277 -1.3409467017570011 0.756668227562736 -1.402497151728138 0.7418382464727266 C -1.4217203640048728 0.7372038773820987 -1.4425411148949623 0.7309342918806311 -1.460430533140736 0.7398111809680453 C -1.4650046177553881 0.7420869199361261 -1.4694279911801011 0.7456738462566771 -1.4708898897225107 0.7508583111905828 C -1.4738362934858205 0.7613553455698426 -1.463474899177506 0.7705637992751228 -1.4539122741758685 0.7743767923805825 C -1.4262115574650585 0.7854163870436232 -1.3955267591934537 0.7802168509907236 -1.3662812527857673 0.7757784064470165 C -1.3028500299703687 0.7661710322900112 -1.238837937835383 0.7608964862517497 -1.1746896525756627 0.7599914093008936 C -1.1468909735913897 0.7596070957665487 -1.1188737633817074 0.760059229336366 -1.0916477869192052 0.766110283612422 C -1.0689808239523615 0.7711515729158854 -1.0455075561193434 0.781369791593758 -1.0331341674253418 0.8024015381497619 C -1.053300654894373 0.7897425222584028 -1.0756024946839013 0.7808590667251113 -1.0989497440717557 0.7761853266598521 C -1.1140434697441586 0.7731937095395606 -1.129408475558452 0.7720332333770293 -1.1447508746942543 0.7717544176756418 C -1.2508590879708918 0.769847921122912 -1.3571330835564628 0.8096808886238215 -1.4616437582197457 0.7898623671468271 C -1.4706035384616265 0.7881668662600122 -1.482991998274622 0.7882045440574968 -1.4851848460882362 0.7977068845831584 C -1.4874003005803411 0.8073222585012744 -1.4760969613349073 0.8135843084432447 -1.4670844321765477 0.8156565873049076 C -1.349929088677373 0.8426037480660223 -1.2280640204925999 0.809778850897282 -1.1085952602278593 0.8194695804103674 C -1.0895227591410637 0.8210143701072435 -1.069922768889481 0.8238552760375958 -1.0534425002696384 0.834284490381383 C -1.0458240496182156 0.8390997128999379 -1.0383487745972353 0.8475093972985407 -1.0402251289119775 0.8567932065987905 C -1.1009096091640955 0.8403234436850767 -1.163788074292168 0.8334007872930603 -1.2266021219501908 0.8362738780885793 C -1.2983632550397026 0.8396045953862338 -1.3701017814507241 0.8557382282692166 -1.4414861365653884 0.8471627615616809 C -1.4515837862913095 0.8459495364826709 -1.4637838571168813 0.8451583027354906 -1.4697746269169611 0.853974907346929 C -1.4493909384776953 0.878842253686884 -1.4198892230471123 0.8933934190755058 -1.3897695917377793 0.9004617738836506 C -1.359642424868949 0.9075301286917955 -1.3285507063845083 0.9077411243577101 -1.2977151969229643 0.908125437892055 C -1.2339266857812319 0.9089091360797384 -1.168759167251556 0.9103333568246631 -1.1080074865870966 0.8894071081016163 C -1.0961239092603972 0.8853152992947692 -1.0826503288798397 0.8805076123357113 -1.071784052085229 0.8870936913360506 C -1.114623707825424 0.9224128586982835 -1.1728359049394093 0.9244248530839708 -1.2268131176161052 0.9249448066892608 C -1.2754702252879504 0.925412011378072 -1.324504110934643 0.9258415382693984 -1.372309700383332 0.9161055953993315 C -1.3875541372456741 0.9129934093270885 -1.4026026495610953 0.9088714582822536 -1.4176662329955103 0.9048700761893701 C -1.4227452000964584 0.903521211039415 -1.4295799525601978 0.9030313996721128 -1.431735122576327 0.9081631156895397 C -1.4333477323086758 0.9120213221519812 -1.430928817710153 0.9163994822197127 -1.428344120802697 0.919594559446422 C -1.4170257104382689 0.9335956289917663 -1.4007715086033348 0.9419450289143937 -1.384283704423995 0.9474158451091838 C -1.315612150728235 0.9702033770279787 -1.2411985006957944 0.9485687857122179 -1.1697613966646512 0.9569483278728329 C -1.166905419615305 0.9572874280501961 -1.1638610535785345 0.9577621682985041 -1.1617209546813991 0.9598193760411732 C -1.1572749745781952 0.9641146449544381 -1.159867207045148 0.9727428605784528 -1.1650516719790536 0.9759304022456651 C -1.1702361369129595 0.9791179439128775 -1.1766338269258751 0.9785226347126182 -1.1825718478094764 0.97787457659588 C -1.2161050875709307 0.9742198302398563 -1.2497664318438333 0.972019446866745 -1.2834579183547237 0.9712809620360433 C -1.302907197416367 0.9708589707042138 -1.3235320237595358 0.9712508197980557 -1.3400575057363602 0.9822753433421022 L -1.2548604700637755 0.9995091679116407 C -1.2512057237077518 1.0002476527423423 -1.2473625883643042 1.0010765642870076 -1.2445367535529457 1.0036763323134572 C -1.2417033831820903 1.00626856478041 -1.240407266948614 1.0112571051673949 -1.242796039309149 1.014324077882656 C -1.2443860423630067 1.0163511433873373 -1.2470234881869413 1.0169539881470935 -1.249465009463955 1.0173609083599295 C -1.2668608015246992 1.020231294423978 -1.2846721434268893 1.0192954791161837 -1.3016713656588663 1.0146179647030373 L -1.2649430486707027 1.0135253085759786 C -1.2632400122243908 1.0108426493950624 -1.2668947585804144 1.0079565301077285 -1.2698185556652333 1.0071652963605477 C -1.30532611201489 0.9975197802044441 -1.346613442498712 1.007504396537911 -1.3763487602737003 0.984536011191189 L -1.358082564053079 0.9746644282501765 C -1.3784039448817926 0.968904420370064 -1.398352865855546 0.9619032978585235 -1.4178169441854493 0.9537005017296448 C -1.4289469655624534 0.9490058481630411 -1.440506513830784 0.9434446052542879 -1.4474542996869775 0.9329852486725126 C -1.4544020855431707 0.9225258920907379 -1.4544774411381405 0.9057442010910167 -1.4445531092806494 0.8985703484499147 C -1.4562106198224403 0.8918410938191329 -1.4684031550885153 0.8845918855830613 -1.4753961543016905 0.8725123837094407 C -1.4823816179553686 0.8604328818358201 -1.481778773195612 0.8420235099847567 -1.4705884673426324 0.8344276660118249 C -1.4844840390550194 0.8331390853378456 -1.4964203652981976 0.8194620448508704 -1.496729323237573 0.8044738170114248 C -1.497045816736445 0.7894931247314764 -1.4856972641340291 0.7752509172822294 -1.4718695124571148 0.7732916718130208 C -1.4862473599773072 0.7621239726385319 -1.4827433248112225 0.7336772355375231 -1.4661575583584223 0.7269178386687535 C -1.4600914329633727 0.724446175153752 -1.451613928529297 0.7228034231834156 -1.4510638326860192 0.7158556373272221 C -1.4507247325086565 0.7115754395329511 -1.4539725586518444 0.7080940110453574 -1.4559845530375317 0.7043865157728549 C -1.4697369491194765 0.6790595003035859 -1.431931047123248 0.6499119561693601 -1.4120070278132963 0.6473046525834133 C -1.3885563666587692 0.6442301443086552 -1.3580674929340852 0.6639054901552072 -1.3352874965747872 0.6698510465983055 C -1.2727498883095494 0.6861806040282094 -1.2073789096734557 0.6900538816096448 -1.1435753274127292 0.6808604990233585" fill="#ad1e28" transform="matrix(1,0,0,1,0,0)" fill-rule="nonzero"></path></g><g clip-path="url(&quot;#b2bc3331b-80cc-432f-8317-67acad0d6468a701e7ad-2865-4f77-8424-70bd0430ea49&quot;)"><path d=" M -1.1534695170322324 0.6280739047471814 C -1.2108980159585343 0.6285712516739804 -1.2693061376194403 0.6380283788426603 -1.3251370979323873 0.6246075473785818 C -1.327797150434813 0.6239670248213404 -1.3305627007701957 0.6232134688716447 -1.3325746951558832 0.6213597212353935 C -1.3376687333758253 0.61666506766879 -1.3347374007315094 0.607418936166025 -1.328791844288411 0.6038696876429587 C -1.3228462878453127 0.6003204391198925 -1.315423761740811 0.6007725726897098 -1.3085211892415995 0.6013377396519816 L -1.2530896135819911 0.6058892175881431 C -1.2395180709279732 0.6069969448341953 -1.2232714046525361 0.606921589239226 -1.215585133965641 0.5956785344697676 L -1.2197296916889666 0.591466156710969 C -1.2365867382836573 0.602814709313385 -1.258869387716156 0.6004334725123467 -1.2788612270615805 0.59678626171582 C -1.2988530664070048 0.5931465864787903 -1.3203218754138324 0.5888513175655253 -1.3387915317408718 0.5973137508806069 C -1.3447521593029639 0.600049158978002 -1.3503586155686993 0.6043368923317699 -1.3528378146431979 0.6104030177268197 C -1.356929623450045 0.6204027051792803 -1.3510594226019161 0.6322862825059797 -1.342152391276514 0.6384051568175081 C -1.3332453599511123 0.6445240311290364 -1.3220927318956173 0.6461818542183667 -1.311347024052958 0.6473347948214011 C -1.28014980773556 0.6506881187975463 -1.248651169038284 0.6511779301648487 -1.2173635260069224 0.6487891578043136 C -1.1909589255295887 0.6467696278591294 -1.1634089200087174 0.6428662080397062 -1.1387525693346774 0.6525418664337977 C -1.1275245856842129 0.6569501687395168 -1.1102455477576927 0.6627676206711669 -1.1145784944684425 0.6447651690329389 C -1.1183312030979267 0.6291816319932341 -1.141194090611691 0.6279684069142241 -1.1534695170322324 0.6280739047471814" fill="#ad1e28" transform="matrix(1,0,0,1,0,0)" fill-rule="nonzero"></path></g><g clip-path="url(&quot;#b2bc3331b-80cc-432f-8317-67acad0d6468a701e7ad-2865-4f77-8424-70bd0430ea49&quot;)"><path d=" M -0.9647414294309691 0.7600969071338509 C -0.9644852204080727 0.7669015173596022 -0.9643345092181335 0.777391016179365 -0.9649976384538657 0.7897116559568881 C -0.8665229469476443 0.806191924576731 -0.8250773697143863 0.8178569706780189 -0.8077531184308844 0.8247218653797458 C -0.8625667782117425 0.8399135533256091 -1.066026884629555 0.8485116267116358 -1.2526073377741858 0.8480971709393031 C -1.565958508336108 0.8329506963504215 -1.678313700435722 0.8180528952249396 -1.7180336345441773 0.8085806969372659 C -1.687740685366414 0.8011280285947763 -1.6295284882524288 0.7933513311939179 -1.5749710374944672 0.7884758241993871 C -1.5757999490391326 0.7775040495718192 -1.5753402799098182 0.7660273924579551 -1.5748881463400008 0.7590796066017619 C -1.7646410700328503 0.7751981683657508 -1.7644300743669357 0.7962525216002457 -1.7642341498200147 0.8089499393526168 C -1.7639101207616454 0.8294466611843371 -1.7635484139057918 0.8526863266729495 -1.2533382870453906 0.8773351417874925 L -1.2506179500669896 0.8773351417874925 C -1.2322839338108955 0.8773351417874925 -1.1250604577287084 0.8771542883595657 -1.0187713910241438 0.8731152284691971 C -0.7714392572150535 0.8637033146574992 -0.76978896968522 0.8435004796461599 -0.7684627112137559 0.8272764200492136 C -0.7668802437193951 0.8079251032610305 -0.7806778531583214 0.790593316418032 -0.9647414294309691 0.7600969071338509" fill="#f4a622" transform="matrix(1,0,0,1,0,0)" fill-rule="nonzero"></path></g><g clip-path="url(&quot;#b2bc3331b-80cc-432f-8317-67acad0d6468a701e7ad-2865-4f77-8424-70bd0430ea49&quot;)"><path d=" M -2.1707022290858218 0.4190525554206155 L -2.1605367593244282 0.49577208665912476 C -2.1581103091664087 0.5140910317962247 -2.166218571185133 0.5717908108644169 -2.1856377080087888 0.5186500452918831 C -2.1980337033812813 0.48107774564006045 -2.1925176738295096 0.4749739424475261 -2.2049061336425053 0.43740164279570337 C -2.209208938115267 0.4243575893064726 -2.2161190461739757 0.4004020456656494 -2.227083285242047 0.3921355368974886 C -2.249501574745491 0.3752332769458162 -2.326115608151043 0.39116344972238126 -2.3179244549778515 0.3643670001512056 C -2.315641180450274 0.35161683348235606 -2.281422204774597 0.34639469075096563 -2.256155473781303 0.34017031860648006 C -2.2495844658999578 0.3385577088741313 -2.2424482910563404 0.3376232994965087 -2.2374522151098586 0.3330718215603474 C -2.232561636996334 0.3286183058976464 -2.230519500372659 0.3218890512668646 -2.2291706352227036 0.3154235412184764 C -2.2191408055322555 0.2673089938304122 -2.2318005454871415 0.22661697254684976 -2.2207082019076223 0.16939946928646266 C -2.203926510907901 0.1388729177642939 -2.1952606174864018 0.30837025752932556 -2.1788632400210255 0.3258753622407543 C -2.162473398115146 0.34336539583318926 -2.0347456646417417 0.358670117171507 -2.0978409043097543 0.3825879830148453 C -2.1084359009624745 0.3866044362267229 -2.148231190665899 0.38875207068335527 -2.1588111161996255 0.3927609883357359 C -2.1588111161996255 0.3927609883357359 -2.173987733026495 0.3942605646756303 -2.1707022290858218 0.4190525554206155" fill="#f4a622" transform="matrix(1,0,0,1,0,0)" fill-rule="nonzero"></path></g><g clip-path="url(&quot;#b2bc3331b-80cc-432f-8317-67acad0d6468a701e7ad-2865-4f77-8424-70bd0430ea49&quot;)"><path d=" M -1.2971952433176746 -0.101534036867094 C -1.2969993187707538 -0.08924353932755874 -1.2970972810442143 -0.07690782843104171 -1.2974891301380558 -0.06453443973703998 C -1.2976473768874919 -0.055536981697674515 -1.3064413748204395 -0.02932830576726142 -1.3105331836272869 -0.05581579739906184 C -1.3130274538207793 -0.0742251692501254 -1.310141334533445 -0.07666669052713909 -1.3132610561651847 -0.09484246003379704 C -1.3143461767327465 -0.10113465221375528 -1.316132104333525 -0.11254348929214675 -1.3205404066392443 -0.11680108040792686 C -1.329515258000119 -0.12544436715093543 -1.3635684513668633 -0.12145805617704569 -1.35862512433686 -0.13272371762499496 C -1.3570049790450145 -0.1381267137843124 -1.3420468934435568 -0.1393625455418132 -1.3309620854235344 -0.14145743108196696 C -1.3280835016956973 -0.14200752692524476 -1.3249863867424483 -0.14222605815065648 -1.3226955766553739 -0.14417023250087113 C -1.3204575154847777 -0.14606919349410402 -1.319395001595707 -0.14911355953087424 -1.3186640523245021 -0.15205996329418403 C -1.3133590184386452 -0.17410147482278038 -1.318385236623115 -0.19291023132718266 -1.3150093059684786 -0.21951829191093436 C -1.3080313778742974 -0.23425784628698026 -1.3026660595124646 -0.1549159403435304 -1.2973760967456016 -0.1460089090181284 C -1.2908955155782194 -0.13768965133348893 -1.235795504536477 -0.1253313337584811 -1.2638353214246503 -0.1157310309593591 C -1.2685751883482357 -0.11419377682198006 -1.286004937464695 -0.11489458385519696 -1.290782482185765 -0.1134628275507753 C -1.290805088864256 -0.1134628275507753 -1.2974062389835894 -0.1134251497532906 -1.2971952433176746 -0.101534036867094" fill="#f4a622" transform="matrix(1,0,0,1,0,0)" fill-rule="nonzero"></path></g><g clip-path="url(&quot;#b2bc3331b-80cc-432f-8317-67acad0d6468a701e7ad-2865-4f77-8424-70bd0430ea49&quot;)"><path d=" M -2.008069784022517 0.6073209738925648 C -2.0305106802044524 0.6313066597713758 -2.0237738900141737 0.6761432387782641 -1.9947921281888807 0.6915986713065209 C -1.965802830804091 0.7070541038347774 -1.9241161156669302 0.6865272397650694 -1.9196475288852353 0.6539811582977163 C -1.9151714065440435 0.6214426123898603 -1.9511687742610024 0.5902604671914563 -1.9824714884113577 0.6002074057274384" fill="#f4a622" transform="matrix(1,0,0,1,0,0)" fill-rule="nonzero"></path></g><g clip-path="url(&quot;#b2bc3331b-80cc-432f-8317-67acad0d6468a701e7ad-2865-4f77-8424-70bd0430ea49&quot;)"><path d=" M -2.1951475840939474 -0.04389454227487738 C -2.2063680321849146 -0.031905467115220354 -2.2029996370897753 -0.009487177611776199 -2.188508756177129 -0.0017556935678992858 C -2.1740178752644828 0.005968254916480564 -2.153174517695902 -0.004295177118373572 -2.150936456525306 -0.020564450072301566 C -2.1486983953547103 -0.03683372302622956 -2.1666933114334412 -0.05242479562543162 -2.182352204068116 -0.04745132635744059" fill="#f4a622" transform="matrix(1,0,0,1,0,0)" fill-rule="nonzero"></path></g><g clip-path="url(&quot;#b2bc3331b-80cc-432f-8317-67acad0d6468a701e7ad-2865-4f77-8424-70bd0430ea49&quot;)"><path d=" M -1.2090744105602709 0.07056307092438763 C -1.2202948586512383 0.0825521460840446 -1.216926463556099 0.10497043558748875 -1.2024355826434527 0.11270191963136567 C -1.1879447017308062 0.12042586811574563 -1.167101344162226 0.11016243608089149 -1.16486328299163 0.0938931631269635 C -1.162625221821034 0.0776238901730355 -1.180620137899765 0.06203281757383339 -1.1962790305344395 0.06700628684182441" fill="#f4a622" transform="matrix(1,0,0,1,0,0)" fill-rule="nonzero"></path></g><g clip-path="url(&quot;#b2bc3331b-80cc-432f-8317-67acad0d6468a701e7ad-2865-4f77-8424-70bd0430ea49&quot;)"><path d=" M -1.193634049151008 -0.26828089741573646 C -1.2006873328401588 -0.2607378023592835 -1.1985698406215142 -0.2466463060999758 -1.1894593491896943 -0.24178587022443915 C -1.1803488577578745 -0.2369254343489025 -1.1672369842331711 -0.24337587327829685 -1.1658353701667372 -0.2536091630751631 C -1.1644262205408067 -0.2638424528720294 -1.1757446309052344 -0.2736462157775692 -1.1855860716082591 -0.27051895858633246" fill="#f4a622" transform="matrix(1,0,0,1,0,0)" fill-rule="nonzero"></path></g><g clip-path="url(&quot;#b2bc3331b-80cc-432f-8317-67acad0d6468a701e7ad-2865-4f77-8424-70bd0430ea49&quot;)"><path d=" M -2.06960516287466 0.8202231363600628 C -2.076658446563811 0.8277662314165158 -2.0745409543451663 0.8418577276758236 -2.0654304629133464 0.8467181635513604 C -2.0563199714815266 0.8515785994268968 -2.043208097956823 0.8451281604975026 -2.0418064838903893 0.8348948707006362 C -2.0403973342644584 0.82466158090377 -2.0517157446288863 0.8148578179982301 -2.0615571853319112 0.817985075189467" fill="#f4a622" transform="matrix(1,0,0,1,0,0)" fill-rule="nonzero"></path></g><g clip-path="url(&quot;#b2bc3331b-80cc-432f-8317-67acad0d6468a701e7ad-2865-4f77-8424-70bd0430ea49&quot;)"><path d=" M -1.543306616488258 -0.4330006924596982 C -1.5503599001774089 -0.42545759740324524 -1.5482424079587642 -0.41136610114393746 -1.5391319165269444 -0.4065056652684008 C -1.5300214250951245 -0.40164522939286423 -1.5169095515704212 -0.4080956683222585 -1.5155079375039873 -0.41832895811912485 C -1.5140987878780567 -0.42856224791599107 -1.5254171982424845 -0.43836601082153087 -1.5352586389455092 -0.43523875363029413" fill="#f4a622" transform="matrix(1,0,0,1,0,0)" fill-rule="nonzero"></path></g><g clip-path="url(&quot;#b2bc3331b-80cc-432f-8317-67acad0d6468a701e7ad-2865-4f77-8424-70bd0430ea49&quot;)"><path d=" M -2.2237902457418772 -0.1758195823880866 C -2.230843529431028 -0.16827648733163364 -2.2287260372123834 -0.15418499107232586 -2.2196155457805635 -0.14932455519678928 C -2.2105050543487437 -0.14446411932125258 -2.19739318082404 -0.15091455825064692 -2.1959915667576064 -0.1611478480475132 C -2.1945824171316755 -0.17138113784437947 -2.2059008274961034 -0.18118490074991928 -2.215742268199128 -0.17805764355868253" fill="#f4a622" transform="matrix(1,0,0,1,0,0)" fill-rule="nonzero"></path></g><g clip-path="url(&quot;#b2bc3331b-80cc-432f-8317-67acad0d6468a701e7ad-2865-4f77-8424-70bd0430ea49&quot;)"><path d=" M -1.7953409394234487 -0.04387193559638647 C -1.8384217330675463 -0.03232745844704982 -1.882851391861599 -0.05797850297468815 -1.8943958690109357 -0.10105929661878565 C -1.9059328106007754 -0.14413255470338626 -1.880281766073137 -0.18856974905693585 -1.8372009724290395 -0.20010669064677555 C -1.794127714344439 -0.21165116779611215 -1.7496980555503863 -0.18600012326847387 -1.7381535784010498 -0.14292686518387326 C -1.72661663681121 -0.09984607153977576 -1.7522676813388482 -0.055416412745723065 -1.7953409394234487 -0.04387193559638647 M -1.8328755612777867 -0.18394291552580488 C -1.8670342524774883 -0.17479474629650027 -1.8873877986787666 -0.139550934529237 -1.878232093889965 -0.10539224332953534 C -1.8690763891011635 -0.07122601657033678 -1.8338325773339001 -0.05088000592855557 -1.7996738861341985 -0.06003571071735708 C -1.7655076593749999 -0.06919141550615865 -1.7451616487332187 -0.10442769171392502 -1.7543173535220202 -0.13859391847312358 C -1.7634730583108218 -0.17275260967282519 -1.798709334518588 -0.19309862031460645 -1.8328755612777867 -0.18394291552580488" fill="#f4a622" transform="matrix(1,0,0,1,0,0)" fill-rule="nonzero"></path></g><g clip-path="url(&quot;#b2bc3331b-80cc-432f-8317-67acad0d6468a701e7ad-2865-4f77-8424-70bd0430ea49&quot;)"><path d=" M -2.0801549461703983 -0.4845589905378711 C -2.079335172481162 -0.4815060401151759 -2.076948940680234 -0.4791223416545949 -2.0738951212060424 -0.4783058113097525 C -2.070841301731851 -0.4774892809649101 -2.067583842417087 -0.4783639691215665 -2.065349796677637 -0.4806003892115866 C -2.0631157509381874 -0.4828368093016067 -2.062244523472892 -0.4860951959058102 -2.063064297240923 -0.48914814630734743 C -2.0643315576338934 -0.4938675986016425 -2.069184747178479 -0.49666615312838 -2.073904199524958 -0.49539889278669236 C -2.0786236518714367 -0.4941316324450047 -2.0814222064608034 -0.4892784429365338 -2.0801549461800195 -0.4845589905737012" fill="#f4a622" transform="matrix(1,0,0,1,0,0)" fill-rule="nonzero"></path></g><g clip-path="url(&quot;#b2bc3331b-80cc-432f-8317-67acad0d6468a701e7ad-2865-4f77-8424-70bd0430ea49&quot;)"><path d=" M -1.503036586536525 -0.1411560087020885 L -1.5135562275942758 -0.15416238439383462 L -1.466896043189124 -0.1919155374735842 C -1.5553936539213753 -0.3042481228947076 -1.6587287813031333 -0.29414293760928956 -1.6597762240732101 -0.2940223686573382 L -1.6616375072689582 -0.3106533484671202 C -1.656875033666882 -0.3111883731914041 -1.543819034534051 -0.3222355034139416 -1.4485997047305148 -0.1955702838296079 L -1.443754339973972 -0.18911984490021355 Z" fill="#f4a622" transform="matrix(1,0,0,1,0,0)" fill-rule="nonzero"></path></g><g clip-path="url(&quot;#b2bc3331b-80cc-432f-8317-67acad0d6468a701e7ad-2865-4f77-8424-70bd0430ea49&quot;)"><path d=" M -1.9833531488725016 0.19293302159545633 L -1.988741073912825 0.18692718067638237 C -2.094502651452603 0.06907856570348725 -2.061218085154548 -0.05004355882439354 -2.0597486510526415 -0.05506224144936617 L -2.0436903737646284 -0.05036758788276258 C -2.0440144028229974 -0.04924478951771616 -2.0744354565122087 0.06097030368476253 -1.9816048990692077 0.16967828498784998 L -1.9355400238643157 0.1312167893153865 L -1.9248169227001473 0.14405738269819957 Z" fill="#f4a622" transform="matrix(1,0,0,1,0,0)" fill-rule="nonzero"></path></g><g clip-path="url(&quot;#b2bc3331b-80cc-432f-8317-67acad0d6468a701e7ad-2865-4f77-8424-70bd0430ea49&quot;)"><path d=" M -2.056922816241283 -0.2795842366611707 C -2.0601327242372443 -0.2787349083878812 -2.0635413549126636 -0.27986100338452324 -2.0656135841747485 -0.28245536915359 C -2.067685813436833 -0.2850497349226567 -2.068030722506936 -0.2886229534656837 -2.0664929768024174 -0.29156577626133084 C -2.019531370017387 -0.38070390955082356 -1.9182459148188016 -0.4021124340816756 -1.9139431103460396 -0.40295641674533467 C -1.9117704695863602 -0.40339826521971134 -1.909511301818131 -0.402957840043423 -1.9076637284907068 -0.4017322500855984 C -1.9058161551632824 -0.4005066601277737 -1.9045319025383969 -0.39859655318406917 -1.9040941340835182 -0.39642308666147374 C -1.903647639603601 -0.39424929104054773 -1.9040849035182807 -0.3919871748287374 -1.9053093477896472 -0.39013636934234186 C -1.9065337920610135 -0.3882855638559463 -1.9084446702432565 -0.3869983521175583 -1.910619928607882 -0.3865590392799584 C -1.9115844802234925 -0.3863706502925345 -2.0084993109138436 -0.36574582394936583 -2.0516856023908985 -0.2837664721819813 C -2.0527699232220953 -0.281701556513653 -2.054669184564662 -0.280184880189733 -2.056922816241283 -0.2795842366611707" fill="#f4a622" transform="matrix(1,0,0,1,0,0)" fill-rule="nonzero"></path></g><g clip-path="url(&quot;#b2bc3331b-80cc-432f-8317-67acad0d6468a701e7ad-2865-4f77-8424-70bd0430ea49&quot;)"><path d=" M -1.8135920645250763 -0.07130137216530641 C -1.7947534220433379 -0.07130137179839274 -1.7773457983684087 -0.08135166768990237 -1.7679264769909853 -0.09766641057306114 C -1.7585071556135619 -0.11398115345622001 -1.7585071555569456 -0.1340817457239829 -1.7679264768424634 -0.15039648866020344 C -1.777345798127981 -0.16671123159642404 -1.794753421746294 -0.17676152758599595 -1.8135920642280325 -0.17676152732520584 C -1.8427140818868082 -0.1767615267580065 -1.8663221411600472 -0.153153466958466 -1.8663221410780209 -0.12403144959673418 C -1.8663221409959945 -0.09490943223500237 -1.8427140815897642 -0.07130137256845293 -1.8135920642280325 -0.07130137216530641" fill="#f4a622" transform="matrix(1,0,0,1,0,0)" fill-rule="nonzero"></path></g><g clip-path="url(&quot;#b2bc3331b-80cc-432f-8317-67acad0d6468a701e7ad-2865-4f77-8424-70bd0430ea49&quot;)"><path d=" M -1.762252297672315 0.36661259688129855 C -1.7653716601986376 0.3674511047944118 -1.768695042685559 0.36641859761400897 -1.7707900865823663 0.3639600799383701 C -1.787782773248002 0.3440360606284183 -2.1866625441003746 -0.12689119457435089 -2.159579743268315 -0.3726634675675714 C -2.154659022916803 -0.4172739797895511 -2.135820124174413 -0.4521937624984452 -2.1035754650869376 -0.4764582640786436 C -2.0998839710241786 -0.47923624861854425 -2.0946394223888203 -0.478495702831821 -2.0918614378489195 -0.4748042087690618 C -2.0890834533090192 -0.47111271470630245 -2.089823999095742 -0.4658681660709443 -2.0935154931585016 -0.46309018153104364 C -2.121924552462026 -0.44170426367868243 -2.1385555322718077 -0.41067282967021745 -2.142948763458533 -0.37083232660981114 C -2.167620185251567 -0.14695085395524793 -1.810901869784663 0.2897348188933532 -1.7632545270854103 0.34691464435625563 L -1.3669971309379783 0.03188304402651232 C -1.8505615194171425 -0.5721900119279728 -2.0395156738033147 -0.4916047386675251 -2.04138449255856 -0.49073061376587823 C -2.045526080288673 -0.48875571078313446 -2.050486376295803 -0.4904616504234245 -2.052537120614055 -0.49456621354982894 C -2.0545775600876737 -0.49865867020313304 -2.0529358668718216 -0.5036308476068819 -2.04885976757954 -0.5057037704863298 C -2.040826861155785 -0.5097352948172011 -1.84754729561836 -0.5975396340757327 -1.3486857213603751 0.02799469532608312 C -1.3458124079491371 0.03161466246852429 -1.346412531158841 0.03687754072890592 -1.3500270509508332 0.039757703700831426 L -1.7592154671950417 0.36508287830341646 C -1.7601106816512657 0.3657979057173544 -1.761144874224938 0.3663188513562017 -1.762252297672315 0.36661259688129855" fill="#f4a622" transform="matrix(1,0,0,1,0,0)" fill-rule="nonzero"></path></g><g clip-path="url(&quot;#b2bc3331b-80cc-432f-8317-67acad0d6468a701e7ad-2865-4f77-8424-70bd0430ea49&quot;)"><path d=" M -1.2422459434658712 0.27156658494619235 C -1.2437615827588244 0.2719718316573433 -1.24530577865497 0.2722615258303558 -1.2468652414375052 0.27243317428834213 C -1.2621925694543137 0.2741286751751574 -1.2796976741657426 0.26490515035088313 -1.2988756730854958 0.2450037377194223 C -1.2999909358910453 0.24385833267588497 -1.4115850364814668 0.13138257162431954 -1.4905200222120811 0.1554210064196092 L -1.452661371299374 0.19655009015399516 C -1.4495317168355375 0.19995234090936465 -1.449752699792058 0.2052474963164158 -1.4531549505474275 0.20837715078025243 C -1.456557201302797 0.21150680524408905 -1.4618523567098483 0.21128582228756854 -1.4649820111736847 0.20788357153219894 L -1.5110468862817892 0.15782484989913825 C -1.5128315423973797 0.15588632980997963 -1.5135984377542595 0.15322020021940952 -1.5131165214777622 0.15062971488082288 C -1.512634605201265 0.14803922954223614 -1.510960221258808 0.14582725895125648 -1.5085978294452786 0.14466022745795604 C -1.4186383201706176 0.10023056866390334 -1.2922142384901865 0.22789801766133222 -1.2868715268068447 0.23334622717763143 C -1.266646085117015 0.25433276037665387 -1.2542802319825102 0.25641257479781365 -1.2487114535142596 0.2557946589190633 C -1.2462925389157367 0.2555233787771729 -1.2443935779225037 0.2546869316730108 -1.24299196385607 0.2537902000928731 C -1.2728252439045187 0.1936941131046488 -1.3135926207830508 0.1431079022015831 -1.3642315806025953 0.103387968093128 C -1.3684741005993815 0.10005725079547334 -1.372332307061823 0.09689231580675184 -1.3760398023343252 0.09384794976998168 C -1.384848871386267 0.08660627709340685 -1.3924597864781925 0.08035176271093347 -1.4023313694192048 0.07435345735135646 C -1.404913656087421 0.07281490735842744 -1.406471832263224 0.07000908041953091 -1.4064129119835305 0.06700377362683407 C -1.406353991703837 0.06399846683413735 -1.4046870363892279 0.06125586992883503 -1.4020464294412727 0.05981971692027421 C -1.3994058224933172 0.05838356391171362 -1.3961976660260618 0.05847472249598329 -1.3936428693192147 0.060058500985630925 C -1.3827615214056102 0.06667472222395832 -1.3743367658880132 0.07359236584216389 -1.3654146634436173 0.08091692967320507 C -1.3616153600689276 0.08406368000686582 -1.3577794996194092 0.08716602948633867 -1.3539078640917712 0.09022334565194123 C -1.2997573335466395 0.13270129453628687 -1.2565032220341121 0.18707035630682445 -1.225336147954702 0.25181588350467055 C -1.2241085034470318 0.2543683631528172 -1.224255968654026 0.25736871294127284 -1.2257279970485437 0.2597885054524499 C -1.2263383773677972 0.2607831993060482 -1.2314173444687455 0.26866539453986427 -1.2422459434658712 0.27156658494619235" fill="#f4a622" transform="matrix(1,0,0,1,0,0)" fill-rule="nonzero"></path></g><g clip-path="url(&quot;#b2bc3331b-80cc-432f-8317-67acad0d6468a701e7ad-2865-4f77-8424-70bd0430ea49&quot;)"><path d=" M -1.5889871781588054 0.5452656414351317 C -1.5915968471827275 0.5459606849665767 -1.5943815384409636 0.5453577558421853 -1.5964699887392828 0.5436454961432863 C -1.8276006696299176 0.35363636342754023 -1.753488441977355 0.06785780506498029 -1.7527122793491687 0.06498675689664002 C -1.7518833678045036 0.061919784181379 -1.7493815620515143 0.05962897409430434 -1.7462467693007804 0.05896584485857215 C -1.7431195121095437 0.058355464539318724 -1.7399168993233374 0.05957622517782568 -1.7379877960921166 0.06210063760930584 L -1.6085193483749154 0.2319144708732097 C -1.6057597571021778 0.23553774327936328 -1.606406244026131 0.24070293932462794 -1.6099737113578279 0.24353430361751582 C -1.687213196201627 0.3049415779582104 -1.586621012476761 0.46899824376643984 -1.5855961763851751 0.4706485312962734 C -1.5708566220091291 0.4939484812608613 -1.5660413994905742 0.5131340157401113 -1.5713313622574374 0.5276248966527578 C -1.5761616558949862 0.5408724102484063 -1.5873670328669598 0.5447607589488358 -1.5886254713029515 0.5451601436021744 L -1.5889871781588054 0.5452656414351317 M -1.7402333928222096 0.08675698828334599 C -1.7516949788170797 0.14981455015387402 -1.7756882002553875 0.37075715460462433 -1.5903511144277545 0.5269617674170256 C -1.5891002115512598 0.5257711490165066 -1.5877739530797954 0.5240379703322066 -1.5869450415351303 0.5215813779361992 C -1.5851440428153578 0.5162989507288328 -1.58442062910365 0.5038049930828797 -1.5997705637989492 0.4795404915026814 C -1.6042090083426566 0.4724118522185611 -1.7041606695102811 0.3093875580614146 -1.6265896200486158 0.23582542625213 Z" fill="#f4a622" transform="matrix(1,0,0,1,0,0)" fill-rule="nonzero"></path></g><g clip-path="url(&quot;#b2bc3331b-80cc-432f-8317-67acad0d6468a701e7ad-2865-4f77-8424-70bd0430ea49&quot;)"><path d=" M -1.6406811163079236 0.3611568518055024 C -1.6445304296328487 0.362200451010403 -1.6485811246411268 0.36038119124752865 -1.650358135894789 0.3568106810069227 C -1.652135147148451 0.35324017076631675 -1.6511441261829871 0.3489116937153306 -1.647990609019971 0.34647004634593515 L -1.402866394143489 0.15579778439445702 C -1.3992185987139414 0.15296153501027387 -1.3939622418314144 0.15361942306681609 -1.3911259924472312 0.1572672184963635 C -1.388289743063048 0.1609150139259109 -1.3889476311195903 0.1661713708084378 -1.3925954265491378 0.16900762019262094 L -1.637712105866123 0.35967988214409896 C -1.6385926328041829 0.36036645880138996 -1.6396023588023496 0.36086875904413285 -1.6406811163079236 0.3611568518055024" fill="#f4a622" transform="matrix(1,0,0,1,0,0)" fill-rule="nonzero"></path></g><g clip-path="url(&quot;#b2bc3331b-80cc-432f-8317-67acad0d6468a701e7ad-2865-4f77-8424-70bd0430ea49&quot;)"><path d=" M -1.518122776649431 0.26581695305001496 C -1.5214071487852387 0.2666965533419561 -1.5248973052654344 0.26550239570666734 -1.5269544523798633 0.26279519369173554 L -1.5711354377105167 0.20463574549422903 C -1.5739321501437349 0.20095673674621162 -1.573216907702375 0.19570712750776598 -1.5695378989960318 0.19291041501972628 C -1.5658588902896886 0.1901137025316867 -1.560609281040585 0.19082894489482116 -1.5578125684977238 0.19450795355949013 L -1.513631583189245 0.25266740172782676 C -1.5119412565916732 0.2548858775171877 -1.511467885210155 0.25780091115457016 -1.5123693500588131 0.26044026712924906 C -1.5132708149074716 0.2630796231039281 -1.5154285046622422 0.26509602497212503 -1.518122776649431 0.26581695305001496" fill="#f4a622" transform="matrix(1,0,0,1,0,0)" fill-rule="nonzero"></path></g><g clip-path="url(&quot;#b2bc3331b-80cc-432f-8317-67acad0d6468a701e7ad-2865-4f77-8424-70bd0430ea49&quot;)"><path d=" M -1.5820846056595936 0.31556671684891846 C -1.5856667016111783 0.3165240199220156 -1.5894515317305524 0.3150088610249565 -1.5913834860788372 0.3118441504574223 L -1.6282248364594554 0.2516048878387559 C -1.6306365848352942 0.2476636873004998 -1.62939671888258 0.24251360464249128 -1.625455518344324 0.24010185626665248 C -1.621514317806068 0.23769010789081368 -1.6163642351480594 0.23892997384352777 -1.6139524867722206 0.24287117438178374 L -1.5771111363916026 0.3031179725599471 C -1.5757328664710442 0.30536885083973 -1.5754978173848508 0.30813820598909103 -1.5764770179325232 0.3105891746326588 C -1.5774562184801957 0.3130401432762264 -1.5795347865334113 0.31488517196553334 -1.5820846056595936 0.31556671684891846" fill="#f4a622" transform="matrix(1,0,0,1,0,0)" fill-rule="nonzero"></path></g></g></g><defs><clipPath id="SvgjsClipPath1001"><path d=" M -2.3185344967374717 -0.5120830104017339 h 1.9185344967374718 v 1.8837665208034677 h -1.9185344967374718 Z"></path></clipPath><clipPath id="b2bc3331b-80cc-432f-8317-67acad0d6468a701e7ad-2865-4f77-8424-70bd0430ea49"><path d=" M -2.3622938292959286 -0.6534233433051586 L -0.39246843455363845 -0.6534233433051586 L -0.39246843455363845 1.379218475403757 L -2.3622938292959286 1.379218475403757 Z"></path></clipPath></defs></svg>